HIERARCHY
ROOT pelvis
{
  OFFSET 0 100 0
  CHANNELS 6 Xposition Yposition Zposition Zrotation Xrotation Yrotation
  JOINT pelvis_right_femur
  {
    OFFSET -10.78128 -3.44521 -0.5502486
    CHANNELS 3 Zrotation Xrotation Yrotation
    JOINT right_femur_tibia
    {
      OFFSET -0.8047443 -44.0398 -0.1307829
      CHANNELS 3 Zrotation Xrotation Yrotation
      JOINT right_tibia_foot
      {
        OFFSET 3.006224 -47.83518 -5
        CHANNELS 3 Zrotation Xrotation Yrotation
        End Site
        {
          OFFSET 0 -5 15
        }
      }
    }
  }
  JOINT pelvis_left_femur
  {
    OFFSET 10.78128 -3.44521 -0.5502486
    CHANNELS 3 Zrotation Xrotation Yrotation
    JOINT left_femur_tibia
    {
      OFFSET 0.8047443 -44.0398 -0.1307829
      CHANNELS 3 Zrotation Xrotation Yrotation
      JOINT left_tibia_foot
      {
        OFFSET -4.370144 -48.10324 -4.275266
        CHANNELS 3 Zrotation Xrotation Yrotation
        End Site
        {
          OFFSET 0 -5 15
        }
      }
    }
  }
  JOINT pelvis_spine1
  {
    OFFSET 0 6.468898 -3.129235
    CHANNELS 3 Zrotation Xrotation Yrotation
    JOINT spine1
    {
      OFFSET 0 23.15396 4.99043
      CHANNELS 3 Zrotation Xrotation Yrotation
      JOINT spine2
      {
        OFFSET 0 20.79997 -5.064912
        CHANNELS 3 Zrotation Xrotation Yrotation
        JOINT neck
        {
          OFFSET 0 14.38658 9.616178
          CHANNELS 3 Zrotation Xrotation Yrotation
          End Site
          {
            OFFSET 0 20 0
          }
        }
      }
      JOINT right_manubrium
      {
        OFFSET -5.722621 16.35077 3.967754
        CHANNELS 3 Zrotation Xrotation Yrotation
        JOINT right_clavicle
        {
          OFFSET -13.16364 1.694482 -4.693211
          CHANNELS 3 Zrotation Xrotation Yrotation
          JOINT right_humerus
          {
            OFFSET -28.5034 -0.3100689 -2.792744
            CHANNELS 3 Zrotation Xrotation Yrotation
            JOINT right_radius
            {
              OFFSET -25.15693 0.02248979 -1.271978
              CHANNELS 3 Zrotation Xrotation Yrotation
              End Site
              {
                OFFSET -15 0 0
              }
            }
          }
        }
      }
      JOINT left_manubrium
      {
        OFFSET 5.722621 16.35077 3.967754
        CHANNELS 3 Zrotation Xrotation Yrotation
        JOINT left_clavicle
        {
          OFFSET 13.16364 1.694482 -4.693211
          CHANNELS 3 Zrotation Xrotation Yrotation
          JOINT left_humerus
          {
            OFFSET 29.39168 -1.063119 -2.237045
            CHANNELS 3 Zrotation Xrotation Yrotation
            JOINT left_radius
            {
              OFFSET 24.59957 -0.9528479 0.9047498
              CHANNELS 3 Zrotation Xrotation Yrotation
              End Site
              {
                OFFSET 15 -0 -0
              }
            }
          }
        }
      }
    }
  }
}
MOTION
Frames: 7
Frame Time: 0.0416666666667
0 103.5113 0 0.85329 -1.252012 0.2456085 3.007015 -16.3043 7.854667 -0 39.23172 -0 -5.492723 -14.00451 -3.09715 -7.134903 6.523164 -22.15862 -0 4.933059 -0 6.423524 -18.35092 25.21924 -1.204606 -1.406527 4.631944 3.077627 7.398744 -8.453416 1.033298 21.05991 7.241325 2.269079 -27.29029 9.624915 4.932289 -19.62635 11.37747 88.39279 36.46728 -22.97426 -0 0 15.43087 -6.819098 10.58383 5.656207 3.437872 -18.9565 -1.302434 -97.59697 38.32944 28.51827 0 0 -25.74594 -7.730892 12.13087 27.09801
0.4190923 103.7366 1.292218 0.8854943 -1.269087 0.4881493 3.141492 -17.22854 8.355901 -0 41.28986 -0 -5.40887 -13.82489 -3.332343 -7.346532 7.712716 -22.74568 -0 6.615692 -0 6.530563 -18.40109 25.39775 -1.115628 -1.559281 4.573658 3.20897 7.467584 -8.654981 0.9711827 20.97619 7.259724 2.283654 -27.74692 9.65162 4.876601 -19.838 11.43913 88.91861 36.53882 -23.68536 -0 0 15.31971 -6.160469 10.35364 5.325092 3.457317 -19.25396 -1.330895 -97.90439 38.4438 28.96321 0 0 -26.26678 -7.604493 12.54015 27.00624
0.7488647 103.8613 2.824014 0.7586123 -1.099795 0.7486313 3.412002 -20.24274 7.716993 -0 38.70981 -0 -5.637294 -12.72117 -3.567364 -7.043948 10.28301 -22.19159 -0 6.790779 -0 6.161897 -19.16495 24.46073 -1.320798 -1.34038 4.585332 2.980398 7.522857 -8.330599 1.006955 21.12379 7.311388 2.458035 -26.85427 9.494441 5.060366 -19.34097 11.40421 88.02462 36.57741 -22.4388 -0 0 15.13567 -7.571401 10.74279 5.94341 3.649203 -19.05838 -1.399064 -96.60614 37.18862 27.27136 0 0 -25.14572 -6.567184 12.41303 25.31502
1.017304 103.8233 4.54035 0.6324855 -0.8876229 1.004117 3.629413 -22.32497 7.116101 -0 35.63466 -0 -5.928845 -12.19941 -3.634621 -6.743288 11.81617 -21.66947 -0 6.358229 -0 5.925135 -19.71886 23.75086 -1.360907 -1.325497 4.493498 2.979089 7.56982 -8.357702 0.9936496 21.14767 7.351271 2.532984 -26.72087 9.461843 5.093404 -19.14176 11.40428 88.11019 36.59813 -22.54609 -0 0 14.79008 -7.758424 10.77928 5.953477 3.768736 -19.21331 -1.465232 -96.0215 36.78324 26.47356 0 0 -25.23009 -6.030163 12.56755 24.51445
1.217381 103.5566 6.607944 0.4787873 -0.7358855 1.268581 3.768846 -24.73309 6.148352 -0 31.63415 -0 -6.21228 -11.18018 -3.728477 -6.347015 13.62993 -20.70023 -0 5.819661 -0 5.389732 -20.37608 22.6237 -1.434443 -1.267736 4.391686 2.941034 7.618843 -8.338063 0.9922803 21.20063 7.3959 2.626893 -26.42561 9.408664 5.145379 -18.83518 11.38951 88.08367 36.59305 -22.49076 -0 0 14.37604 -8.182881 10.88348 6.058144 3.919705 -19.3405 -1.547416 -95.20757 36.19149 25.34633 0 0 -25.19037 -5.350351 12.65954 23.4764
1.359299 103.0736 9.07236 0.3387885 -0.6734438 1.54745 3.815164 -26.84942 5.133563 -0 27.85954 -0 -6.425742 -10.01559 -3.831066 -5.987211 15.26797 -19.61419 -0 5.516742 -0 4.723553 -20.92625 21.42057 -1.474013 -1.251612 4.25416 2.957073 7.660799 -8.404907 0.9815474 21.22854 7.440785 2.698177 -26.29241 9.38747 5.165324 -18.56839 11.37818 88.30015 36.5843 -22.77577 -0 0 13.88472 -8.33207 10.9149 6.016524 4.06022 -19.55569 -1.631125 -94.50351 35.7981 24.34029 0 0 -25.4663 -4.775161 12.80556 22.62853
1.451051 102.3894 12.05155 0.212327 -0.7601133 1.854725 3.73589 -28.80641 3.95097 -0 24.24133 -0 -6.528572 -8.418714 -3.988005 -5.652801 16.91858 -18.23577 -0 5.675179 -0 3.77302 -21.37611 19.96112 -1.517628 -1.226732 4.106048 2.970975 7.697954 -8.472805 0.9753562 21.2624 7.48528 2.766556 -26.13374 9.368087 5.182442 -18.27044 11.35979 88.52966 36.5572 -23.07651 -0 0 13.3556 -8.506527 10.95686 5.977485 4.205493 -19.77332 -1.719127 -93.75511 35.39519 23.25288 0 0 -25.77317 -4.19717 12.92302 21.77401
